solid OpenSCAD_Model
  facet normal 0 0 -1
    outer loop
      vertex 0 85 0
      vertex 2 91 0
      vertex 9 91 0
    endloop
  endfacet
  facet normal 0 0 -1
    outer loop
      vertex 0 85 0
      vertex 9 91 0
      vertex 9 89.15384615384616 0
    endloop
  endfacet
  facet normal 0 0 -1
    outer loop
      vertex 13 91 0
      vertex 11 90.07692307692308 0
      vertex 11 91 0
    endloop
  endfacet
  facet normal 0 -1 0
    outer loop
      vertex 0 85 0
      vertex 40.91542000323534 85 2.2671200037002563
      vertex 0 85 11
    endloop
  endfacet
  facet normal 0 0 -1
    outer loop
      vertex 0 85 0
      vertex 0 154 0
      vertex 2 91 0
    endloop
  endfacet
  facet normal 0 0 -1
    outer loop
      vertex 0 85 0
      vertex 9 89.15384615384616 0
      vertex 82 91 0
    endloop
  endfacet
  facet normal 0 0 -1
    outer loop
      vertex 82 91 0
      vertex 9 89.15384615384616 0
      vertex 11 90.07692307692308 0
    endloop
  endfacet
  facet normal 0 0 -1
    outer loop
      vertex 13 91 0
      vertex 82 91 0
      vertex 11 90.07692307692308 0
    endloop
  endfacet
  facet normal 0 -1 0
    outer loop
      vertex 0 85 0
      vertex 93 85 0
      vertex 40.91542000323534 85 2.2671200037002563
    endloop
  endfacet
  facet normal 0 -1 0
    outer loop
      vertex 41.60710000246763 85 3.093079999089241
      vertex 41.611423671245575 85 3.1034612208604813
      vertex 41.60710000246763 85 6.124279998242855
    endloop
  endfacet
  facet normal 0 -1 0
    outer loop
      vertex 41.611423671245575 85 3.1034612208604813
      vertex 41.61973183602095 85 3.1206506118178368
      vertex 41.60710000246763 85 6.124279998242855
    endloop
  endfacet
  facet normal 0 -1 0
    outer loop
      vertex 40.91542000323534 85 2.2671200037002563
      vertex 40.91542000323534 85 6.124279998242855
      vertex 40.10980000346899 85 6.124279998242855
    endloop
  endfacet
  facet normal 0 -1 0
    outer loop
      vertex 41.61973183602095 85 3.1206506118178368
      vertex 41.632024489343166 85 3.144648164510727
      vertex 41.60710000246763 85 6.124279998242855
    endloop
  endfacet
  facet normal 0 -1 0
    outer loop
      vertex 41.632024489343166 85 3.144648164510727
      vertex 41.648301631212234 85 3.1754538789391518
      vertex 41.60710000246763 85 6.124279998242855
    endloop
  endfacet
  facet normal 0 -1 0
    outer loop
      vertex 41.648301631212234 85 3.1754538789391518
      vertex 41.66856326162815 85 3.2130677551031113
      vertex 41.60710000246763 85 6.124279998242855
    endloop
  endfacet
  facet normal 0 -1 0
    outer loop
      vertex 41.66856326162815 85 3.2130677551031113
      vertex 41.692809388041496 85 3.2574897930026054
      vertex 41.60710000246763 85 6.124279998242855
    endloop
  endfacet
  facet normal 0 -1 0
    outer loop
      vertex 41.692809388041496 85 3.2574897930026054
      vertex 41.72104000300169 85 3.308720000088215
      vertex 41.60710000246763 85 6.124279998242855
    endloop
  endfacet
  facet normal 0 -1 0
    outer loop
      vertex 41.72104000300169 85 3.308720000088215
      vertex 41.75018408149481 85 3.3610302060842514
      vertex 41.60710000246763 85 6.124279998242855
    endloop
  endfacet
  facet normal 0 -1 0
    outer loop
      vertex 41.75018408149481 85 3.3610302060842514
      vertex 41.77717061340809 85 3.4086922481656075
      vertex 41.60710000246763 85 6.124279998242855
    endloop
  endfacet
  facet normal 0 -1 0
    outer loop
      vertex 41.77717061340809 85 3.4086922481656075
      vertex 41.80199959129095 85 3.4517061188817024
      vertex 41.60710000246763 85 6.124279998242855
    endloop
  endfacet
  facet normal 0 -1 0
    outer loop
      vertex 41.80199959129095 85 3.4517061188817024
      vertex 41.824671022593975 85 3.4900718331336975
      vertex 41.60710000246763 85 6.124279998242855
    endloop
  endfacet
  facet normal 0 -1 0
    outer loop
      vertex 41.824671022593975 85 3.4900718331336975
      vertex 41.84518489986658 85 3.5237893909215927
      vertex 41.60710000246763 85 6.124279998242855
    endloop
  endfacet
  facet normal 0 -1 0
    outer loop
      vertex 41.84518489986658 85 3.5237893909215927
      vertex 41.86354122310877 85 3.552858777344227
      vertex 41.60710000246763 85 6.124279998242855
    endloop
  endfacet
  facet normal 0 -1 0
    outer loop
      vertex 41.86354122310877 85 3.552858777344227
      vertex 41.87973999977112 85 3.5772799998521805
      vertex 41.60710000246763 85 6.124279998242855
    endloop
  endfacet
  facet normal 0 -1 0
    outer loop
      vertex 41.87973999977112 85 3.5772799998521805
      vertex 43.348540000617504 85 5.741839997470379
      vertex 41.60710000246763 85 6.124279998242855
    endloop
  endfacet
  facet normal 0 0 1
    outer loop
      vertex 0 85 11
      vertex 2 87 11
      vertex 2 91 11
    endloop
  endfacet
  facet normal -1 0 0
    outer loop
      vertex 0 85 0
      vertex 0 85 11
      vertex 0 154 11
    endloop
  endfacet
  facet normal 0 0 1
    outer loop
      vertex 0 85 11
      vertex 2 91 11
      vertex 2 148 11
    endloop
  endfacet
  facet normal 0 -1 0
    outer loop
      vertex 40.91542000323534 85 2.2671200037002563
      vertex 40.10980000346899 85 6.124279998242855
      vertex 0 85 11
    endloop
  endfacet
  facet normal 0 -1 0
    outer loop
      vertex 0 85 11
      vertex 40.10980000346899 85 6.124279998242855
      vertex 40.10980000346899 85 6.702079996466637
    endloop
  endfacet
  facet normal 0 -1 0
    outer loop
      vertex 43.348540000617504 85 5.741839997470379
      vertex 43.568259999156 85 6.042920000851154
      vertex 41.60710000246763 85 6.124279998242855
    endloop
  endfacet
  facet normal 0 -1 0
    outer loop
      vertex 41.60710000246763 85 6.124279998242855
      vertex 43.568259999156 85 6.042920000851154
      vertex 43.633359998464584 85 6.124279998242855
    endloop
  endfacet
  facet normal 0 -1 0
    outer loop
      vertex 40.10980000346899 85 6.702079996466637
      vertex 40.91542000323534 85 6.702079996466637
      vertex 40.91542000323534 85 8
    endloop
  endfacet
  facet normal 0 -1 0
    outer loop
      vertex 41.60710000246763 85 6.702079996466637
      vertex 44.30877999961376 85 6.702079996466637
      vertex 41.60710000246763 85 8
    endloop
  endfacet
  facet normal 0 -1 0
    outer loop
      vertex 0 85 11
      vertex 40.10980000346899 85 6.702079996466637
      vertex 40.91542000323534 85 8
    endloop
  endfacet
  facet normal 0 0 1
    outer loop
      vertex 0 85 11
      vertex 93 85 11
      vertex 2 87 11
    endloop
  endfacet
  facet normal 0 -1 0
    outer loop
      vertex 0 85 11
      vertex 40.91542000323534 85 8
      vertex 93 85 11
    endloop
  endfacet
  facet normal 0 0 -1
    outer loop
      vertex 2 91 0
      vertex 0 154 0
      vertex 2 148 0
    endloop
  endfacet
  facet normal -1 0 0
    outer loop
      vertex 0 85 0
      vertex 0 154 11
      vertex 0 154 0
    endloop
  endfacet
  facet normal 0 0 -1
    outer loop
      vertex 2 148 0
      vertex 0 154 0
      vertex 9 148 0
    endloop
  endfacet
  facet normal 0 0 -1
    outer loop
      vertex 0 154 0
      vertex 9 149.84615384615384 0
      vertex 9 148 0
    endloop
  endfacet
  facet normal 0 0 -1
    outer loop
      vertex 13 148 0
      vertex 11 148 0
      vertex 11 148.9230769230769 0
    endloop
  endfacet
  facet normal 0 0 -1
    outer loop
      vertex 82 148 0
      vertex 11 148.9230769230769 0
      vertex 9 149.84615384615384 0
    endloop
  endfacet
  facet normal 0 0 -1
    outer loop
      vertex 0 154 0
      vertex 82 148 0
      vertex 9 149.84615384615384 0
    endloop
  endfacet
  facet normal 0 0 -1
    outer loop
      vertex 13 148 0
      vertex 11 148.9230769230769 0
      vertex 82 148 0
    endloop
  endfacet
  facet normal 0 1 0
    outer loop
      vertex 0 154 0
      vertex 0 154 11
      vertex 93 154 0
    endloop
  endfacet
  facet normal 0 0 1
    outer loop
      vertex 0 85 11
      vertex 2 148 11
      vertex 2 152 11
    endloop
  endfacet
  facet normal 0 0 1
    outer loop
      vertex 0 85 11
      vertex 2 152 11
      vertex 0 154 11
    endloop
  endfacet
  facet normal 0 0 1
    outer loop
      vertex 0 154 11
      vertex 2 152 11
      vertex 91 152 11
    endloop
  endfacet
  facet normal 0 0 -1
    outer loop
      vertex 0 85 0
      vertex 82 91 0
      vertex 93 85 0
    endloop
  endfacet
  facet normal 0 -1 0
    outer loop
      vertex 40.91542000323534 85 2.2671200037002563
      vertex 93 85 0
      vertex 41.68444000184536 85 2.2671200037002563
    endloop
  endfacet
  facet normal 0 -1 0
    outer loop
      vertex 41.68444000184536 85 2.2671200037002563
      vertex 93 85 0
      vertex 93 85 11
    endloop
  endfacet
  facet normal 0 0 -1
    outer loop
      vertex 82 91 0
      vertex 82 148 0
      vertex 93 85 0
    endloop
  endfacet
  facet normal 1 0 0
    outer loop
      vertex 93 85 0
      vertex 93 154 0
      vertex 93 85 11
    endloop
  endfacet
  facet normal 0 -1 0
    outer loop
      vertex 41.68444000184536 85 2.2671200037002563
      vertex 93 85 11
      vertex 44.30877999961376 85 6.132440000772476
    endloop
  endfacet
  facet normal 0 -1 0
    outer loop
      vertex 44.30877999961376 85 6.132440000772476
      vertex 93 85 11
      vertex 44.30877999961376 85 6.702079996466637
    endloop
  endfacet
  facet normal 0 -1 0
    outer loop
      vertex 44.30877999961376 85 6.702079996466637
      vertex 93 85 11
      vertex 41.60710000246763 85 8
    endloop
  endfacet
  facet normal 0 -1 0
    outer loop
      vertex 40.91542000323534 85 8
      vertex 41.60710000246763 85 8
      vertex 93 85 11
    endloop
  endfacet
  facet normal 0 0 1
    outer loop
      vertex 2 87 11
      vertex 93 85 11
      vertex 91 87 11
    endloop
  endfacet
  facet normal 0 0 1
    outer loop
      vertex 91 87 11
      vertex 93 85 11
      vertex 93 154 11
    endloop
  endfacet
  facet normal 0 0 -1
    outer loop
      vertex 0 154 0
      vertex 93 154 0
      vertex 82 148 0
    endloop
  endfacet
  facet normal 0 0 -1
    outer loop
      vertex 93 85 0
      vertex 82 148 0
      vertex 93 154 0
    endloop
  endfacet
  facet normal 0 1 0
    outer loop
      vertex 0 154 11
      vertex 93 154 11
      vertex 93 154 0
    endloop
  endfacet
  facet normal 0 0 1
    outer loop
      vertex 0 154 11
      vertex 91 152 11
      vertex 93 154 11
    endloop
  endfacet
  facet normal 1 0 0
    outer loop
      vertex 93 85 11
      vertex 93 154 0
      vertex 93 154 11
    endloop
  endfacet
  facet normal 0 0 1
    outer loop
      vertex 91 87 11
      vertex 93 154 11
      vertex 91 152 11
    endloop
  endfacet
  facet normal 0 0 1
    outer loop
      vertex 2 87 1
      vertex 9 87 1
      vertex 2 91 1
    endloop
  endfacet
  facet normal 0 0 1
    outer loop
      vertex 2 91 1
      vertex 9 87 1
      vertex 9 91 1
    endloop
  endfacet
  facet normal 0 0 1
    outer loop
      vertex 12.783671346853874 90.51534061362455 1
      vertex 11 90.7438152831226 1
      vertex 11 88.85816382627817 1
    endloop
  endfacet
  facet normal 0 1 0
    outer loop
      vertex 2 87 1
      vertex 9 87 3
      vertex 9 87 1
    endloop
  endfacet
  facet normal 0 1 0
    outer loop
      vertex 13 87 1
      vertex 11 87 1
      vertex 11 87 3
    endloop
  endfacet
  facet normal 0 1 0
    outer loop
      vertex 13 87 1
      vertex 11 87 3
      vertex 40.91542000323534 87 2.2671200037002563
    endloop
  endfacet
  facet normal 0 1 0
    outer loop
      vertex 2 87 1
      vertex 2 87 11
      vertex 9 87 3
    endloop
  endfacet
  facet normal 1 0 0
    outer loop
      vertex 2 87 1
      vertex 2 91 1
      vertex 2 91 11
    endloop
  endfacet
  facet normal 0 1 0
    outer loop
      vertex 40.10980000346899 87 6.702079996466637
      vertex 11 87 3
      vertex 9 87 3
    endloop
  endfacet
  facet normal 0 0 1
    outer loop
      vertex 13 87 1
      vertex 91 87 1
      vertex 12.783671346853874 90.51534061362455 1
    endloop
  endfacet
  facet normal 0 0 1
    outer loop
      vertex 12.783671346853874 90.51534061362455 1
      vertex 82 91 1
      vertex 13 91 1
    endloop
  endfacet
  facet normal 0 1 0
    outer loop
      vertex 40.91542000323534 87 2.2671200037002563
      vertex 11 87 3
      vertex 40.10980000346899 87 6.124279998242855
    endloop
  endfacet
  facet normal 0 1 0
    outer loop
      vertex 40.10980000346899 87 6.124279998242855
      vertex 11 87 3
      vertex 40.10980000346899 87 6.702079996466637
    endloop
  endfacet
  facet normal 0 1 0
    outer loop
      vertex 41.60710000246763 87 3.093079999089241
      vertex 41.60710000246763 87 6.124279998242855
      vertex 41.611423671245575 87 3.1034612208604813
    endloop
  endfacet
  facet normal 0 1 0
    outer loop
      vertex 41.611423671245575 87 3.1034612208604813
      vertex 41.60710000246763 87 6.124279998242855
      vertex 41.61973183602095 87 3.1206506118178368
    endloop
  endfacet
  facet normal 0 1 0
    outer loop
      vertex 40.91542000323534 87 2.2671200037002563
      vertex 40.10980000346899 87 6.124279998242855
      vertex 40.91542000323534 87 6.124279998242855
    endloop
  endfacet
  facet normal 0 1 0
    outer loop
      vertex 41.61973183602095 87 3.1206506118178368
      vertex 41.60710000246763 87 6.124279998242855
      vertex 41.632024489343166 87 3.144648164510727
    endloop
  endfacet
  facet normal 0 1 0
    outer loop
      vertex 41.632024489343166 87 3.144648164510727
      vertex 41.60710000246763 87 6.124279998242855
      vertex 41.648301631212234 87 3.1754538789391518
    endloop
  endfacet
  facet normal 0 1 0
    outer loop
      vertex 41.648301631212234 87 3.1754538789391518
      vertex 41.60710000246763 87 6.124279998242855
      vertex 41.66856326162815 87 3.2130677551031113
    endloop
  endfacet
  facet normal 0 1 0
    outer loop
      vertex 41.66856326162815 87 3.2130677551031113
      vertex 41.60710000246763 87 6.124279998242855
      vertex 41.692809388041496 87 3.2574897930026054
    endloop
  endfacet
  facet normal 0 1 0
    outer loop
      vertex 41.692809388041496 87 3.2574897930026054
      vertex 41.60710000246763 87 6.124279998242855
      vertex 41.72104000300169 87 3.308720000088215
    endloop
  endfacet
  facet normal 0 1 0
    outer loop
      vertex 41.72104000300169 87 3.308720000088215
      vertex 41.60710000246763 87 6.124279998242855
      vertex 41.75018408149481 87 3.3610302060842514
    endloop
  endfacet
  facet normal 0 1 0
    outer loop
      vertex 41.75018408149481 87 3.3610302060842514
      vertex 41.60710000246763 87 6.124279998242855
      vertex 41.77717061340809 87 3.4086922481656075
    endloop
  endfacet
  facet normal 0 1 0
    outer loop
      vertex 41.77717061340809 87 3.4086922481656075
      vertex 41.60710000246763 87 6.124279998242855
      vertex 41.80199959129095 87 3.4517061188817024
    endloop
  endfacet
  facet normal 0 1 0
    outer loop
      vertex 41.80199959129095 87 3.4517061188817024
      vertex 41.60710000246763 87 6.124279998242855
      vertex 41.824671022593975 87 3.4900718331336975
    endloop
  endfacet
  facet normal 0 1 0
    outer loop
      vertex 41.824671022593975 87 3.4900718331336975
      vertex 41.60710000246763 87 6.124279998242855
      vertex 41.84518489986658 87 3.5237893909215927
    endloop
  endfacet
  facet normal 0 1 0
    outer loop
      vertex 41.84518489986658 87 3.5237893909215927
      vertex 41.60710000246763 87 6.124279998242855
      vertex 41.86354122310877 87 3.552858777344227
    endloop
  endfacet
  facet normal 0 1 0
    outer loop
      vertex 41.86354122310877 87 3.552858777344227
      vertex 41.60710000246763 87 6.124279998242855
      vertex 41.87973999977112 87 3.5772799998521805
    endloop
  endfacet
  facet normal 0 1 0
    outer loop
      vertex 41.87973999977112 87 3.5772799998521805
      vertex 41.60710000246763 87 6.124279998242855
      vertex 43.348540000617504 87 5.741839997470379
    endloop
  endfacet
  facet normal 1 0 0
    outer loop
      vertex 2 87 1
      vertex 2 91 11
      vertex 2 87 11
    endloop
  endfacet
  facet normal 0 1 0
    outer loop
      vertex 2 87 11
      vertex 40.10980000346899 87 6.702079996466637
      vertex 9 87 3
    endloop
  endfacet
  facet normal 0 1 0
    outer loop
      vertex 43.348540000617504 87 5.741839997470379
      vertex 41.60710000246763 87 6.124279998242855
      vertex 43.568259999156 87 6.042920000851154
    endloop
  endfacet
  facet normal 0 1 0
    outer loop
      vertex 41.60710000246763 87 6.124279998242855
      vertex 43.633359998464584 87 6.124279998242855
      vertex 43.568259999156 87 6.042920000851154
    endloop
  endfacet
  facet normal 0 1 0
    outer loop
      vertex 40.10980000346899 87 6.702079996466637
      vertex 40.91542000323534 87 8
      vertex 40.91542000323534 87 6.702079996466637
    endloop
  endfacet
  facet normal 0 1 0
    outer loop
      vertex 2 87 11
      vertex 40.91542000323534 87 8
      vertex 40.10980000346899 87 6.702079996466637
    endloop
  endfacet
  facet normal 0 1 0
    outer loop
      vertex 2 87 11
      vertex 91 87 11
      vertex 40.91542000323534 87 8
    endloop
  endfacet
  facet normal 0 0 1
    outer loop
      vertex 2 148 1
      vertex 9 152 1
      vertex 2 152 1
    endloop
  endfacet
  facet normal 0 0 1
    outer loop
      vertex 2 148 1
      vertex 9 148 1
      vertex 9 152 1
    endloop
  endfacet
  facet normal 0 -1 0
    outer loop
      vertex 2 152 1
      vertex 9 152 1
      vertex 9 152 3
    endloop
  endfacet
  facet normal 1 0 0
    outer loop
      vertex 2 148 1
      vertex 2 152 1
      vertex 2 152 11
    endloop
  endfacet
  facet normal 0 -1 0
    outer loop
      vertex 2 152 1
      vertex 9 152 3
      vertex 2 152 11
    endloop
  endfacet
  facet normal 0 0 1
    outer loop
      vertex 13 148 1
      vertex 82 148 1
      vertex 11 149.8343677269201 1
    endloop
  endfacet
  facet normal 0 0 1
    outer loop
      vertex 91 152 1
      vertex 11 152 1
      vertex 11 149.8343677269201 1
    endloop
  endfacet
  facet normal 0 -1 0
    outer loop
      vertex 91 152 11
      vertex 11 152 3
      vertex 11 152 1
    endloop
  endfacet
  facet normal 1 0 0
    outer loop
      vertex 2 148 1
      vertex 2 152 11
      vertex 2 148 11
    endloop
  endfacet
  facet normal 0 -1 0
    outer loop
      vertex 91 152 11
      vertex 9 152 3
      vertex 11 152 3
    endloop
  endfacet
  facet normal 0 -1 0
    outer loop
      vertex 2 152 11
      vertex 9 152 3
      vertex 91 152 11
    endloop
  endfacet
  facet normal 0 1 0
    outer loop
      vertex 13 87 1
      vertex 40.91542000323534 87 2.2671200037002563
      vertex 91 87 1
    endloop
  endfacet
  facet normal 0 1 0
    outer loop
      vertex 40.91542000323534 87 2.2671200037002563
      vertex 41.68444000184536 87 2.2671200037002563
      vertex 91 87 1
    endloop
  endfacet
  facet normal 0 0 1
    outer loop
      vertex 12.783671346853874 90.51534061362455 1
      vertex 91 87 1
      vertex 82 91 1
    endloop
  endfacet
  facet normal 0 1 0
    outer loop
      vertex 41.68444000184536 87 2.2671200037002563
      vertex 44.30877999961376 87 6.132440000772476
      vertex 91 87 1
    endloop
  endfacet
  facet normal 0 1 0
    outer loop
      vertex 44.30877999961376 87 6.132440000772476
      vertex 44.30877999961376 87 6.702079996466637
      vertex 91 87 1
    endloop
  endfacet
  facet normal 0 0 1
    outer loop
      vertex 82 91 1
      vertex 91 87 1
      vertex 91 152 1
    endloop
  endfacet
  facet normal -1 0 0
    outer loop
      vertex 91 87 1
      vertex 91 87 11
      vertex 91 152 1
    endloop
  endfacet
  facet normal 0 1 0
    outer loop
      vertex 41.60710000246763 87 6.702079996466637
      vertex 91 87 11
      vertex 44.30877999961376 87 6.702079996466637
    endloop
  endfacet
  facet normal 0 1 0
    outer loop
      vertex 41.60710000246763 87 6.702079996466637
      vertex 41.60710000246763 87 8
      vertex 91 87 11
    endloop
  endfacet
  facet normal 0 1 0
    outer loop
      vertex 40.91542000323534 87 8
      vertex 91 87 11
      vertex 41.60710000246763 87 8
    endloop
  endfacet
  facet normal 0 1 0
    outer loop
      vertex 44.30877999961376 87 6.702079996466637
      vertex 91 87 11
      vertex 91 87 1
    endloop
  endfacet
  facet normal 0 0 1
    outer loop
      vertex 82 148 1
      vertex 91 152 1
      vertex 11 149.8343677269201 1
    endloop
  endfacet
  facet normal 0 -1 0
    outer loop
      vertex 91 152 1
      vertex 91 152 11
      vertex 11 152 1
    endloop
  endfacet
  facet normal 0 0 1
    outer loop
      vertex 82 91 1
      vertex 91 152 1
      vertex 82 148 1
    endloop
  endfacet
  facet normal -1 0 0
    outer loop
      vertex 91 87 11
      vertex 91 152 11
      vertex 91 152 1
    endloop
  endfacet
  facet normal 0 1 0
    outer loop
      vertex 2 91 0
      vertex 2 91 1
      vertex 9 91 0
    endloop
  endfacet
  facet normal 0 1 0
    outer loop
      vertex 2 91 1
      vertex 9 91 1
      vertex 9 91 0
    endloop
  endfacet
  facet normal 1 0 0
    outer loop
      vertex 2 91 0
      vertex 2 99.76923076923077 1
      vertex 2 91 1
    endloop
  endfacet
  facet normal 1 0 0
    outer loop
      vertex 2 91 1
      vertex 2 99.76923076923077 1
      vertex 2 91 11
    endloop
  endfacet
  facet normal 1 0 0
    outer loop
      vertex 2 91 0
      vertex 2 148 0
      vertex 2 99.76923076923077 1
    endloop
  endfacet
  facet normal 0 1 0
    outer loop
      vertex 13 91 0
      vertex 13 91 1
      vertex 82 91 0
    endloop
  endfacet
  facet normal 1 0 0
    outer loop
      vertex 2 99.76923076923077 1
      vertex 2 148 11
      vertex 2 91 11
    endloop
  endfacet
  facet normal 1 0 0
    outer loop
      vertex 2 99.76923076923077 1
      vertex 2 148 0
      vertex 2 148 1
    endloop
  endfacet
  facet normal 1 0 0
    outer loop
      vertex 2 99.76923076923077 1
      vertex 2 148 1
      vertex 2 148 11
    endloop
  endfacet
  facet normal 0 -1 0
    outer loop
      vertex 2 148 0
      vertex 9 148 1
      vertex 2 148 1
    endloop
  endfacet
  facet normal 0 -1 0
    outer loop
      vertex 2 148 0
      vertex 9 148 0
      vertex 9 148 1
    endloop
  endfacet
  facet normal 0 -1 0
    outer loop
      vertex 13 148 0
      vertex 82 148 1
      vertex 13 148 1
    endloop
  endfacet
  facet normal 0 1 0
    outer loop
      vertex 13 91 1
      vertex 82 91 1
      vertex 82 91 0
    endloop
  endfacet
  facet normal -1 0 0
    outer loop
      vertex 82 91 0
      vertex 82 91 1
      vertex 82 148 0
    endloop
  endfacet
  facet normal 0 -1 0
    outer loop
      vertex 13 148 0
      vertex 82 148 0
      vertex 82 148 1
    endloop
  endfacet
  facet normal -1 0 0
    outer loop
      vertex 82 91 1
      vertex 82 148 1
      vertex 82 148 0
    endloop
  endfacet
  facet normal 0 0 1
    outer loop
      vertex 40.91542000323534 85 2.2671200037002563
      vertex 41.68444000184536 85 2.2671200037002563
      vertex 41.68444000184536 87 2.2671200037002563
    endloop
  endfacet
  facet normal 0 0 1
    outer loop
      vertex 40.91542000323534 85 2.2671200037002563
      vertex 41.68444000184536 87 2.2671200037002563
      vertex 40.91542000323534 87 2.2671200037002563
    endloop
  endfacet
  facet normal 0.9231350115069382 0 -0.38447594271954794
    outer loop
      vertex 41.60710000246763 85 3.093079999089241
      vertex 41.60710000246763 87 3.093079999089241
      vertex 41.611423671245575 85 3.1034612208604813
    endloop
  endfacet
  facet normal 0.9003497912455797 0 -0.43516692590779577
    outer loop
      vertex 41.611423671245575 85 3.1034612208604813
      vertex 41.611423671245575 87 3.1034612208604813
      vertex 41.61973183602095 85 3.1206506118178368
    endloop
  endfacet
  facet normal 0.8900249463702316 0 -0.4559118279214375
    outer loop
      vertex 41.61973183602095 85 3.1206506118178368
      vertex 41.61973183602095 87 3.1206506118178368
      vertex 41.632024489343166 85 3.144648164510727
    endloop
  endfacet
  facet normal 0.8841646377705391 0 -0.46717544168769315
    outer loop
      vertex 41.632024489343166 85 3.144648164510727
      vertex 41.632024489343166 87 3.144648164510727
      vertex 41.648301631212234 85 3.1754538789391518
    endloop
  endfacet
  facet normal 0.8803928777723201 0 -0.4742450640415485
    outer loop
      vertex 41.648301631212234 85 3.1754538789391518
      vertex 41.648301631212234 87 3.1754538789391518
      vertex 41.66856326162815 85 3.2130677551031113
    endloop
  endfacet
  facet normal 0.8777632657925548 0 -0.4790946140640582
    outer loop
      vertex 41.66856326162815 85 3.2130677551031113
      vertex 41.66856326162815 87 3.2130677551031113
      vertex 41.692809388041496 85 3.2574897930026054
    endloop
  endfacet
  facet normal 0.8758257887451057 0 -0.4826273798377101
    outer loop
      vertex 41.692809388041496 85 3.2574897930026054
      vertex 41.692809388041496 87 3.2574897930026054
      vertex 41.72104000300169 85 3.308720000088215
    endloop
  endfacet
  facet normal 0.8735692481635823 0 -0.4866998753471319
    outer loop
      vertex 41.72104000300169 85 3.308720000088215
      vertex 41.72104000300169 87 3.308720000088215
      vertex 41.75018408149481 85 3.3610302060842514
    endloop
  endfacet
  facet normal 0.870194096491397 0 -0.4927090768714547
    outer loop
      vertex 41.75018408149481 85 3.3610302060842514
      vertex 41.75018408149481 87 3.3610302060842514
      vertex 41.77717061340809 85 3.4086922481656075
    endloop
  endfacet
  facet normal 0.8660697949016992 0 -0.4999231044460026
    outer loop
      vertex 41.77717061340809 85 3.4086922481656075
      vertex 41.77717061340809 87 3.4086922481656075
      vertex 41.80199959129095 85 3.4517061188817024
    endloop
  endfacet
  facet normal 0.9231350115069382 0 -0.38447594271954794
    outer loop
      vertex 41.60710000246763 87 3.093079999089241
      vertex 41.611423671245575 87 3.1034612208604813
      vertex 41.611423671245575 85 3.1034612208604813
    endloop
  endfacet
  facet normal 0.9003497912455797 0 -0.43516692590779577
    outer loop
      vertex 41.61973183602095 85 3.1206506118178368
      vertex 41.611423671245575 87 3.1034612208604813
      vertex 41.61973183602095 87 3.1206506118178368
    endloop
  endfacet
  facet normal 0.8900249463702316 0 -0.4559118279214375
    outer loop
      vertex 41.632024489343166 85 3.144648164510727
      vertex 41.61973183602095 87 3.1206506118178368
      vertex 41.632024489343166 87 3.144648164510727
    endloop
  endfacet
  facet normal 0.8841646377705391 0 -0.46717544168769315
    outer loop
      vertex 41.648301631212234 85 3.1754538789391518
      vertex 41.632024489343166 87 3.144648164510727
      vertex 41.648301631212234 87 3.1754538789391518
    endloop
  endfacet
  facet normal 0.8803928777723201 0 -0.4742450640415485
    outer loop
      vertex 41.66856326162815 85 3.2130677551031113
      vertex 41.648301631212234 87 3.1754538789391518
      vertex 41.66856326162815 87 3.2130677551031113
    endloop
  endfacet
  facet normal 0.8777632657925548 0 -0.4790946140640582
    outer loop
      vertex 41.692809388041496 85 3.2574897930026054
      vertex 41.66856326162815 87 3.2130677551031113
      vertex 41.692809388041496 87 3.2574897930026054
    endloop
  endfacet
  facet normal 0.8758257887451057 0 -0.4826273798377101
    outer loop
      vertex 41.72104000300169 85 3.308720000088215
      vertex 41.692809388041496 87 3.2574897930026054
      vertex 41.72104000300169 87 3.308720000088215
    endloop
  endfacet
  facet normal 0.8735692481635823 0 -0.4866998753471319
    outer loop
      vertex 41.75018408149481 85 3.3610302060842514
      vertex 41.72104000300169 87 3.308720000088215
      vertex 41.75018408149481 87 3.3610302060842514
    endloop
  endfacet
  facet normal 0.870194096491397 0 -0.4927090768714547
    outer loop
      vertex 41.77717061340809 85 3.4086922481656075
      vertex 41.75018408149481 87 3.3610302060842514
      vertex 41.77717061340809 87 3.4086922481656075
    endloop
  endfacet
  facet normal 0.8660697949016992 0 -0.4999231044460026
    outer loop
      vertex 41.77717061340809 87 3.4086922481656075
      vertex 41.80199959129095 87 3.4517061188817024
      vertex 41.80199959129095 85 3.4517061188817024
    endloop
  endfacet
  facet normal 0.860918842774997 0 -0.5087423180304151
    outer loop
      vertex 41.80199959129095 85 3.4517061188817024
      vertex 41.80199959129095 87 3.4517061188817024
      vertex 41.824671022593975 85 3.4900718331336975
    endloop
  endfacet
  facet normal 0.8543094204458399 0 -0.5197647680802279
    outer loop
      vertex 41.824671022593975 85 3.4900718331336975
      vertex 41.824671022593975 87 3.4900718331336975
      vertex 41.84518489986658 85 3.5237893909215927
    endloop
  endfacet
  facet normal 0.8455320951813801 0 -0.5339245976897725
    outer loop
      vertex 41.84518489986658 85 3.5237893909215927
      vertex 41.84518489986658 87 3.5237893909215927
      vertex 41.86354122310877 85 3.552858777344227
    endloop
  endfacet
  facet normal 0.8333400881601072 0 -0.5527606149729779
    outer loop
      vertex 41.86354122310877 85 3.552858777344227
      vertex 41.86354122310877 87 3.552858777344227
      vertex 41.87973999977112 85 3.5772799998521805
    endloop
  endfacet
  facet normal 1 0 0
    outer loop
      vertex 40.91542000323534 85 2.2671200037002563
      vertex 40.91542000323534 87 2.2671200037002563
      vertex 40.91542000323534 87 6.124279998242855
    endloop
  endfacet
  facet normal 0.860918842774997 0 -0.5087423180304151
    outer loop
      vertex 41.824671022593975 85 3.4900718331336975
      vertex 41.80199959129095 87 3.4517061188817024
      vertex 41.824671022593975 87 3.4900718331336975
    endloop
  endfacet
  facet normal 0.8543094204458399 0 -0.5197647680802279
    outer loop
      vertex 41.84518489986658 85 3.5237893909215927
      vertex 41.824671022593975 87 3.4900718331336975
      vertex 41.84518489986658 87 3.5237893909215927
    endloop
  endfacet
  facet normal 0.8455320951813801 0 -0.5339245976897725
    outer loop
      vertex 41.86354122310877 85 3.552858777344227
      vertex 41.84518489986658 87 3.5237893909215927
      vertex 41.86354122310877 87 3.552858777344227
    endloop
  endfacet
  facet normal 0.8333400881601072 0 -0.5527606149729779
    outer loop
      vertex 41.87973999977112 85 3.5772799998521805
      vertex 41.86354122310877 87 3.552858777344227
      vertex 41.87973999977112 87 3.5772799998521805
    endloop
  endfacet
  facet normal -0.8273321145224466 0 0.5617130693510853
    outer loop
      vertex 41.68444000184536 85 2.2671200037002563
      vertex 44.30877999961376 87 6.132440000772476
      vertex 41.68444000184536 87 2.2671200037002563
    endloop
  endfacet
  facet normal -1 0 0
    outer loop
      vertex 41.60710000246763 85 3.093079999089241
      vertex 41.60710000246763 87 6.124279998242855
      vertex 41.60710000246763 87 3.093079999089241
    endloop
  endfacet
  facet normal 0.8274772964110411 0 -0.5614991753549368
    outer loop
      vertex 41.87973999977112 85 3.5772799998521805
      vertex 41.87973999977112 87 3.5772799998521805
      vertex 43.348540000617504 85 5.741839997470379
    endloop
  endfacet
  facet normal 1 0 0
    outer loop
      vertex 40.91542000323534 85 2.2671200037002563
      vertex 40.91542000323534 87 6.124279998242855
      vertex 40.91542000323534 85 6.124279998242855
    endloop
  endfacet
  facet normal -1 0 0
    outer loop
      vertex 41.60710000246763 85 3.093079999089241
      vertex 41.60710000246763 85 6.124279998242855
      vertex 41.60710000246763 87 6.124279998242855
    endloop
  endfacet
  facet normal -0.8273321145224466 0 0.5617130693510853
    outer loop
      vertex 41.68444000184536 85 2.2671200037002563
      vertex 44.30877999961376 85 6.132440000772476
      vertex 44.30877999961376 87 6.132440000772476
    endloop
  endfacet
  facet normal 0.8274772964110411 0 -0.5614991753549368
    outer loop
      vertex 41.87973999977112 87 3.5772799998521805
      vertex 43.348540000617504 87 5.741839997470379
      vertex 43.348540000617504 85 5.741839997470379
    endloop
  endfacet
  facet normal 0 0 1
    outer loop
      vertex 40.10980000346899 85 6.124279998242855
      vertex 40.91542000323534 85 6.124279998242855
      vertex 40.91542000323534 87 6.124279998242855
    endloop
  endfacet
  facet normal 0 0 1
    outer loop
      vertex 40.10980000346899 85 6.124279998242855
      vertex 40.91542000323534 87 6.124279998242855
      vertex 40.10980000346899 87 6.124279998242855
    endloop
  endfacet
  facet normal 1 0 0
    outer loop
      vertex 40.10980000346899 85 6.124279998242855
      vertex 40.10980000346899 87 6.124279998242855
      vertex 40.10980000346899 85 6.702079996466637
    endloop
  endfacet
  facet normal 1 0 0
    outer loop
      vertex 40.10980000346899 87 6.124279998242855
      vertex 40.10980000346899 87 6.702079996466637
      vertex 40.10980000346899 85 6.702079996466637
    endloop
  endfacet
  facet normal 0 0 -1
    outer loop
      vertex 40.10980000346899 85 6.702079996466637
      vertex 40.10980000346899 87 6.702079996466637
      vertex 40.91542000323534 85 6.702079996466637
    endloop
  endfacet
  facet normal 0 0 -1
    outer loop
      vertex 40.10980000346899 87 6.702079996466637
      vertex 40.91542000323534 87 6.702079996466637
      vertex 40.91542000323534 85 6.702079996466637
    endloop
  endfacet
  facet normal 0.8077743793090167 0 -0.5894917744395869
    outer loop
      vertex 43.348540000617504 85 5.741839997470379
      vertex 43.348540000617504 87 5.741839997470379
      vertex 43.568259999156 85 6.042920000851154
    endloop
  endfacet
  facet normal 0.780812622139834 0 -0.6247652752091115
    outer loop
      vertex 43.568259999156 85 6.042920000851154
      vertex 43.568259999156 87 6.042920000851154
      vertex 43.633359998464584 85 6.124279998242855
    endloop
  endfacet
  facet normal 0 0 1
    outer loop
      vertex 41.60710000246763 85 6.124279998242855
      vertex 43.633359998464584 85 6.124279998242855
      vertex 43.633359998464584 87 6.124279998242855
    endloop
  endfacet
  facet normal 0.8077743793090167 0 -0.5894917744395869
    outer loop
      vertex 43.348540000617504 87 5.741839997470379
      vertex 43.568259999156 87 6.042920000851154
      vertex 43.568259999156 85 6.042920000851154
    endloop
  endfacet
  facet normal 0 0 1
    outer loop
      vertex 41.60710000246763 85 6.124279998242855
      vertex 43.633359998464584 87 6.124279998242855
      vertex 41.60710000246763 87 6.124279998242855
    endloop
  endfacet
  facet normal 0.780812622139834 0 -0.6247652752091115
    outer loop
      vertex 43.568259999156 87 6.042920000851154
      vertex 43.633359998464584 87 6.124279998242855
      vertex 43.633359998464584 85 6.124279998242855
    endloop
  endfacet
  facet normal 0 0 -1
    outer loop
      vertex 41.60710000246763 85 6.702079996466637
      vertex 41.60710000246763 87 6.702079996466637
      vertex 44.30877999961376 85 6.702079996466637
    endloop
  endfacet
  facet normal 0 0 -1
    outer loop
      vertex 41.60710000246763 87 6.702079996466637
      vertex 44.30877999961376 87 6.702079996466637
      vertex 44.30877999961376 85 6.702079996466637
    endloop
  endfacet
  facet normal -1 0 0
    outer loop
      vertex 44.30877999961376 85 6.132440000772476
      vertex 44.30877999961376 85 6.702079996466637
      vertex 44.30877999961376 87 6.702079996466637
    endloop
  endfacet
  facet normal -1 0 0
    outer loop
      vertex 44.30877999961376 85 6.132440000772476
      vertex 44.30877999961376 87 6.702079996466637
      vertex 44.30877999961376 87 6.132440000772476
    endloop
  endfacet
  facet normal 1 0 0
    outer loop
      vertex 40.91542000323534 85 6.702079996466637
      vertex 40.91542000323534 87 6.702079996466637
      vertex 40.91542000323534 85 8
    endloop
  endfacet
  facet normal -1 0 0
    outer loop
      vertex 41.60710000246763 85 6.702079996466637
      vertex 41.60710000246763 87 8
      vertex 41.60710000246763 87 6.702079996466637
    endloop
  endfacet
  facet normal -1 0 0
    outer loop
      vertex 41.60710000246763 85 6.702079996466637
      vertex 41.60710000246763 85 8
      vertex 41.60710000246763 87 8
    endloop
  endfacet
  facet normal 1 0 0
    outer loop
      vertex 40.91542000323534 87 6.702079996466637
      vertex 40.91542000323534 87 8
      vertex 40.91542000323534 85 8
    endloop
  endfacet
  facet normal 0 0 -1
    outer loop
      vertex 40.91542000323534 85 8
      vertex 40.91542000323534 87 8
      vertex 41.60710000246763 85 8
    endloop
  endfacet
  facet normal 0 0 -1
    outer loop
      vertex 41.60710000246763 85 8
      vertex 40.91542000323534 87 8
      vertex 41.60710000246763 87 8
    endloop
  endfacet
  facet normal 0 0 -1
    outer loop
      vertex 9 89.15384615384616 0
      vertex 9 91 0
      vertex 11 90.07692307692308 0
    endloop
  endfacet
  facet normal 1 0 0
    outer loop
      vertex 11 87 1
      vertex 11 88.85816382627817 1
      vertex 11 87 3
    endloop
  endfacet
  facet normal 1 0 0
    outer loop
      vertex 11 88.85816382627817 1
      vertex 11 90.7438152831226 1
      vertex 11 87 3
    endloop
  endfacet
  facet normal 0 0 -1
    outer loop
      vertex 9 148 0
      vertex 11 90.07692307692308 0
      vertex 9 91 0
    endloop
  endfacet
  facet normal 0 0 -1
    outer loop
      vertex 11 91 0
      vertex 11 90.07692307692308 0
      vertex 9 149.84615384615384 0
    endloop
  endfacet
  facet normal -1 0 0
    outer loop
      vertex 9 91 1
      vertex 9 87 1
      vertex 9 152 3
    endloop
  endfacet
  facet normal -1 0 0
    outer loop
      vertex 9 87 1
      vertex 9 87 3
      vertex 9 152 3
    endloop
  endfacet
  facet normal 1 0 0
    outer loop
      vertex 11 152 3
      vertex 11 87 3
      vertex 11 90.7438152831226 1
    endloop
  endfacet
  facet normal -1 0 0
    outer loop
      vertex 9 91 1
      vertex 9 152 3
      vertex 9 91 0
    endloop
  endfacet
  facet normal 0 0 1
    outer loop
      vertex 9 87 3
      vertex 11 87 3
      vertex 9 152 3
    endloop
  endfacet
  facet normal -1 0 0
    outer loop
      vertex 9 148 1
      vertex 9 148 0
      vertex 9 91 0
    endloop
  endfacet
  facet normal 0 0 -1
    outer loop
      vertex 9 148 0
      vertex 9 149.84615384615384 0
      vertex 11 90.07692307692308 0
    endloop
  endfacet
  facet normal 0 0 -1
    outer loop
      vertex 11 91 0
      vertex 9 149.84615384615384 0
      vertex 11 148 0
    endloop
  endfacet
  facet normal -1 0 0
    outer loop
      vertex 9 148 1
      vertex 9 91 0
      vertex 9 152 3
    endloop
  endfacet
  facet normal 1 0 0
    outer loop
      vertex 11 149.8343677269201 1
      vertex 11 152 3
      vertex 11 90.7438152831226 1
    endloop
  endfacet
  facet normal 0 0 1
    outer loop
      vertex 11 87 3
      vertex 11 152 3
      vertex 9 152 3
    endloop
  endfacet
  facet normal 0 0 -1
    outer loop
      vertex 11 148 0
      vertex 9 149.84615384615384 0
      vertex 11 148.9230769230769 0
    endloop
  endfacet
  facet normal -1 0 0
    outer loop
      vertex 9 148 1
      vertex 9 152 3
      vertex 9 152 1
    endloop
  endfacet
  facet normal 1 0 0
    outer loop
      vertex 11 152 1
      vertex 11 152 3
      vertex 11 149.8343677269201 1
    endloop
  endfacet
  facet normal 0 0 1
    outer loop
      vertex 13 87 1
      vertex 11 88.85816382627817 1
      vertex 11 87 1
    endloop
  endfacet
  facet normal 0 0 1
    outer loop
      vertex 13 87 1
      vertex 12.783671346853874 90.51534061362455 1
      vertex 11 88.85816382627817 1
    endloop
  endfacet
  facet normal 0 0 -1
    outer loop
      vertex 13 91 0
      vertex 11 91 0
      vertex 11 148 0
    endloop
  endfacet
  facet normal 1 0 0
    outer loop
      vertex 13 91 0
      vertex 13 148 0
      vertex 13 91 1
    endloop
  endfacet
  facet normal 0 0 1
    outer loop
      vertex 12.783671346853874 90.51534061362455 1
      vertex 13 148 1
      vertex 11 90.7438152831226 1
    endloop
  endfacet
  facet normal 0 0 1
    outer loop
      vertex 12.783671346853874 90.51534061362455 1
      vertex 13 91 1
      vertex 13 148 1
    endloop
  endfacet
  facet normal 0 0 -1
    outer loop
      vertex 13 91 0
      vertex 11 148 0
      vertex 13 148 0
    endloop
  endfacet
  facet normal 1 0 0
    outer loop
      vertex 13 91 1
      vertex 13 148 0
      vertex 13 148 1
    endloop
  endfacet
  facet normal 0 0 1
    outer loop
      vertex 13 148 1
      vertex 11 149.8343677269201 1
      vertex 11 90.7438152831226 1
    endloop
  endfacet
endsolid OpenSCAD_Model
